<svg width="3832" height="2141" viewBox="0 0 3832 2141" fill="none" xmlns="http://www.w3.org/2000/svg">
<path d="M2671.25 0.855875C2660.34 0.331073 2622.76 -0.0887692 2587.82 0.0161913C2552.87 0.0161913 2516.76 0.540994 2507.53 0.960836C2498.29 1.38068 2481.5 2.53524 2470.27 3.47989C2459.04 4.42453 2441.1 6.1039 2430.39 7.25846C2419.69 8.41303 2398.17 10.9321 2382.64 12.9263C2367.11 15.0255 2345.28 18.0694 2334.36 19.8537C2323.45 21.6381 2303.61 25.1017 2290.28 27.7258C2276.95 30.2448 2261.21 33.1837 2255.12 34.3383C2249.04 35.4928 2233.29 39.0615 2219.97 42.2103C2206.64 45.3591 2192.26 48.7179 2187.96 49.5575C2183.65 50.5022 2166.86 54.8056 2150.7 59.2139C2134.54 63.5173 2105.05 72.229 2085.1 78.4217C2065.16 84.7193 2041.13 92.4864 2031.58 95.7401C2022.03 98.9939 2004.29 105.501 1992.22 110.12C1980.15 114.738 1960.95 122.4 1949.72 127.018C1938.49 131.637 1920.96 139.089 1910.89 143.602C1900.81 148.115 1883.6 155.987 1872.58 161.235C1861.56 166.379 1844.56 174.775 1834.8 179.813C1825.04 184.852 1812.86 191.359 1807.83 194.088C1802.68 196.922 1798.38 199.231 1798.07 199.231C1797.75 199.231 1790.82 203.115 1782.64 207.733C1774.35 212.456 1760.81 220.328 1752.41 225.261C1744.02 230.195 1731.53 237.752 1724.6 242.055C1717.67 246.358 1706.55 253.391 1699.94 257.799C1693.33 262.103 1683.25 268.715 1677.58 272.599C1672.02 276.377 1664.78 281.205 1661.63 283.2C1658.48 285.194 1649.14 291.491 1640.96 297.159C1632.66 302.827 1620.7 311.119 1614.3 315.527C1607.9 319.936 1596.88 327.598 1589.85 332.531C1582.92 337.464 1572.42 344.706 1566.65 348.8C1560.88 352.893 1552.8 358.456 1548.6 361.395C1544.4 364.229 1536.43 369.897 1530.86 373.99C1525.3 378.084 1516.48 384.276 1511.45 387.845C1506.57 391.228 1496.79 398.101 1489.17 403.456L1487.94 404.324C1480.17 409.782 1469.15 417.444 1463.59 421.432C1457.92 425.316 1452.15 430.249 1450.68 432.243C1449.32 434.238 1447.53 438.646 1446.8 442.005C1445.64 446.833 1445.64 449.142 1446.8 454.075C1447.74 458.169 1450.37 463.522 1455.09 471.079C1458.97 477.167 1463.38 483.674 1464.85 485.668C1466.32 487.558 1469.15 490.077 1471.15 491.336C1473.14 492.491 1477.44 494.065 1480.59 494.8C1485.42 495.954 1487.41 495.849 1492.66 494.59C1496.12 493.645 1503.68 490.182 1509.45 486.823C1515.23 483.569 1522.57 479.476 1525.72 477.901C1528.87 476.327 1538.84 470.554 1547.76 465.201C1556.68 459.848 1569.27 451.556 1575.68 446.728C1582.08 441.9 1595.83 431.719 1606.11 423.952C1616.4 416.185 1628.26 407.368 1632.24 404.429C1636.23 401.49 1643.58 396.242 1648.51 392.883C1653.44 389.42 1663.1 382.807 1670.03 378.084C1676.95 373.256 1690.91 364.019 1700.99 357.407C1711.06 350.794 1725.34 341.663 1732.68 337.149C1739.92 332.636 1751.26 325.604 1757.87 321.72C1764.38 317.732 1776.55 310.594 1784.95 305.871C1793.34 301.043 1806.04 293.801 1813.28 289.812C1820.53 285.719 1834.48 278.266 1844.24 273.123C1854 267.98 1875.1 257.484 1890.95 249.822C1906.79 242.055 1928.31 231.979 1938.7 227.361C1949.09 222.742 1962.1 217.074 1967.56 214.765C1973.02 212.456 1984.88 207.628 1993.8 204.059C2002.72 200.386 2015.31 195.453 2021.61 192.934C2027.91 190.519 2042.39 185.166 2053.62 181.073C2064.85 177.085 2083.95 170.577 2096.12 166.588C2108.3 162.6 2124.57 157.457 2132.33 155.148C2140.1 152.839 2157.63 147.906 2171.16 144.127C2184.7 140.348 2201.28 136.15 2207.9 134.785C2214.51 133.316 2229.62 130.062 2241.48 127.438C2253.34 124.814 2268.45 121.77 2275.06 120.616C2281.68 119.461 2299.62 116.522 2314.95 114.213C2330.27 112.009 2352.41 108.86 2364.27 107.496C2376.13 106.026 2393.87 104.137 2403.63 103.297C2413.39 102.353 2432.59 101.093 2446.13 100.358C2461.04 99.5187 2495.15 98.9939 2532.19 98.9939C2576.9 99.0989 2601.88 99.5187 2624.02 100.883C2640.71 101.828 2666 103.822 2680.17 105.292C2694.34 106.761 2717.43 109.595 2731.6 111.589C2745.77 113.583 2762.45 115.893 2768.85 116.837C2775.26 117.677 2787.22 119.671 2795.62 121.141C2804.01 122.61 2821.65 126.179 2834.97 129.013C2848.3 131.847 2864.04 135.415 2870.13 136.885C2876.22 138.354 2893.43 142.972 2908.44 147.276C2923.45 151.579 2947.27 159.031 2961.44 163.964C2975.61 168.793 2994.92 175.825 3004.47 179.604C3014.02 183.277 3027.87 189.05 3035.43 192.409C3042.98 195.663 3053.58 200.386 3059.04 202.905C3064.5 205.424 3077.3 211.617 3087.38 216.865C3097.45 222.008 3109.73 228.41 3114.67 230.929C3119.6 233.553 3128.1 238.381 3133.56 241.53C3139.01 244.784 3148.67 250.557 3154.97 254.545C3161.26 258.429 3174.28 266.931 3183.83 273.228C3193.38 279.631 3204.5 287.188 3208.39 290.022C3212.37 292.961 3220.56 299.154 3226.75 303.982C3232.94 308.705 3242.18 316.052 3247.32 320.251C3252.47 324.344 3260.76 331.271 3265.69 335.575C3270.62 339.878 3282.06 350.164 3290.98 358.561C3299.9 366.958 3313.86 380.498 3321.94 388.685C3330.02 396.872 3341.78 409.152 3348.18 416.08C3354.58 423.007 3362.77 432.138 3366.55 436.442C3370.32 440.64 3375.47 446.833 3377.88 449.982C3380.4 453.236 3382.81 456.069 3383.23 456.384C3383.65 456.699 3387.85 461.632 3392.36 467.405C3396.98 473.178 3405.27 483.779 3410.63 491.021C3416.08 498.264 3422.8 507.395 3425.63 511.489C3428.47 515.582 3436.55 527.548 3443.58 538.254C3450.61 548.959 3457.64 559.665 3459.01 562.08C3460.37 564.494 3463.42 569.637 3465.83 573.625C3468.24 577.509 3472.44 584.751 3475.17 589.684C3478 594.617 3484.72 607.108 3490.18 617.499C3495.63 627.89 3504.35 645.523 3509.38 656.544C3514.53 667.67 3518.72 677.011 3518.72 677.326C3518.72 677.641 3521.35 683.834 3524.5 691.181C3527.64 698.633 3534.05 715.217 3538.66 728.232C3543.39 741.247 3548.84 757.306 3550.84 763.919C3552.83 770.531 3556.93 784.701 3560.07 795.407C3563.22 806.113 3566.06 816.714 3566.48 819.023C3566.9 821.332 3568.99 831.513 3571.2 841.589C3573.51 851.666 3576.76 868.249 3578.55 878.325C3580.22 888.402 3583.06 908.239 3584.84 922.409C3586.52 936.579 3588.62 956.416 3589.46 966.492C3590.4 976.568 3591.66 995.251 3592.29 1007.95C3593.03 1022.23 3593.24 1047.84 3592.92 1075.13C3592.61 1099.9 3591.66 1128.87 3590.61 1141.25C3589.78 1153.32 3588.1 1172 3586.94 1182.71C3585.79 1193.42 3584.21 1208.95 3583.27 1217.35C3582.43 1225.74 3580.22 1241.28 3578.55 1251.98C3576.76 1262.69 3573.51 1281.37 3571.09 1293.44L3570.48 1296.64C3568.34 1307.85 3566.08 1319.67 3565.22 1323.88C3564.38 1328.5 3561.23 1340.99 3558.4 1351.7C3555.46 1362.4 3552.2 1374.89 3551.05 1379.51C3550 1384.13 3545.91 1397.88 3542.13 1409.95C3538.35 1422.02 3532.79 1439.02 3529.74 1447.74C3526.7 1456.34 3522.4 1468.73 3520.09 1475.03C3517.78 1481.32 3513.69 1492.03 3510.85 1498.64C3508.12 1505.25 3504.77 1513.76 3503.3 1517.53C3501.83 1521.31 3498.36 1529.61 3495.43 1535.9C3492.59 1542.2 3488.6 1551.02 3486.71 1555.32C3484.82 1559.62 3478.53 1572.85 3472.65 1584.71C3466.88 1596.57 3458.69 1612.63 3454.49 1620.4C3450.3 1628.16 3444.94 1638.03 3442.64 1642.23C3440.33 1646.43 3434.03 1657.34 3428.78 1666.37C3423.43 1675.4 3416.71 1686.63 3413.77 1691.24C3410.83 1695.86 3402.65 1708.46 3395.62 1719.27C3388.59 1729.97 3380.08 1742.78 3376.83 1747.61C3373.47 1752.44 3366.65 1761.99 3361.61 1769.02C3356.58 1775.95 3350.07 1784.66 3347.34 1788.44C3344.61 1792.11 3339.57 1798.62 3336.32 1802.92C3333.07 1807.23 3326.56 1815.41 3321.94 1821.19C3317.32 1826.96 3311.24 1834.62 3308.3 1838.19C3305.64 1841.54 3300.2 1848.04 3295.98 1853.08L3295.18 1854.04C3290.77 1859.18 3285.84 1864.95 3284.16 1866.95C3282.38 1868.94 3277.23 1874.82 3272.62 1880.07C3268 1885.32 3257.92 1896.44 3250.16 1904.84C3242.49 1913.24 3227.07 1929.29 3215.94 1940.53C3204.82 1951.76 3188.03 1968.55 3178.58 1977.79C3169.13 1987.02 3154.23 2001.19 3145.63 2009.27C3136.92 2017.36 3124.43 2028.9 3117.81 2034.99C3111.31 2041.08 3094.1 2057.14 3079.61 2070.68C3065.13 2084.22 3052.22 2096.71 3050.86 2098.49C3049.6 2100.17 3048.02 2104.26 3047.29 2107.41C3046.34 2111.82 3046.34 2114.55 3047.29 2118.96C3048.02 2122.11 3049.7 2126.41 3051.07 2128.4C3052.54 2130.4 3055.47 2133.34 3057.68 2134.91C3059.88 2136.49 3064.5 2138.38 3067.96 2139.22C3073.42 2140.58 3098.19 2140.79 3244.28 2140.79C3369.59 2140.69 3415.56 2140.37 3419.02 2139.53C3421.65 2138.8 3425.63 2136.8 3427.94 2135.02C3430.25 2133.23 3436.13 2126.94 3441.06 2121.06C3445.99 2115.18 3455.12 2104.16 3461.53 2096.6C3467.93 2089.15 3475.38 2080.02 3478.32 2076.45C3481.15 2072.88 3488.29 2064.06 3494.17 2056.93C3499.94 2049.79 3513.16 2032.79 3523.55 2019.25C3533.94 2005.71 3543.81 1992.59 3545.49 1990.28C3547.27 1987.86 3553.36 1979.36 3559.02 1971.38C3564.8 1963.3 3571.2 1954.49 3573.3 1951.55C3575.4 1948.71 3584.63 1934.96 3593.87 1921.11C3603 1907.25 3612.44 1892.77 3614.75 1888.78C3617.06 1884.9 3625.14 1871.46 3632.7 1858.87C3640.26 1846.38 3650.54 1828.85 3655.58 1820.14C3660.51 1811.32 3664.6 1803.87 3664.6 1803.55C3664.6 1803.24 3667.33 1798.2 3670.59 1792.32C3673.84 1786.34 3680.56 1773.22 3685.59 1763.14C3690.63 1753.07 3698.92 1735.54 3704.28 1724.31C3709.52 1713.08 3716.76 1697.02 3720.33 1688.62C3723.9 1680.22 3730.62 1663.95 3735.13 1652.41C3739.75 1640.86 3746.05 1624.38 3749.09 1615.67C3752.13 1607.07 3757.07 1593.11 3759.9 1584.71C3762.84 1576.31 3768.51 1558.89 3772.6 1545.87C3776.69 1532.86 3781.62 1516.17 3783.51 1508.61C3785.51 1501.06 3789.71 1484.79 3792.96 1472.4C3796.21 1460.02 3801.46 1437.76 3804.61 1423.07C3807.76 1408.38 3811.53 1389.69 3813 1381.61C3814.47 1373.53 3816.78 1359.15 3818.25 1349.6C3819.72 1340.05 3822.03 1323.57 3823.5 1312.86C3824.97 1302.16 3826.86 1286.1 3827.7 1277.18C3828.64 1268.25 3829.9 1253.87 3830.64 1245.16C3831.58 1234.35 3832 1207.8 3832 1161.19C3832 1114.28 3831.58 1088.04 3830.64 1077.23C3829.9 1068.62 3828.33 1052.24 3827.17 1041.01C3826.02 1029.78 3823.92 1012.57 3822.55 1002.7C3821.19 992.837 3818.36 974.469 3816.36 961.769C3814.37 949.069 3810.8 929.966 3808.49 919.26C3806.18 908.554 3803.03 893.965 3801.46 886.722C3799.99 879.48 3796.42 864.891 3793.59 854.185C3790.75 843.479 3786.35 827 3783.62 817.448C3780.99 807.897 3774.7 787.64 3769.55 772.315C3764.52 756.991 3756.75 735.264 3752.45 724.034C3748.14 712.803 3740.38 693.595 3735.13 681.525C3729.88 669.454 3721.91 651.716 3717.29 642.164C3712.67 632.613 3704.7 616.869 3699.55 607.003C3694.31 597.136 3686.64 582.967 3682.45 575.514C3678.25 568.062 3672.58 558.301 3669.85 553.998C3667.52 550.175 3662.71 542.544 3658.65 536.105L3657.15 533.74C3652.85 526.918 3647.71 518.626 3645.61 515.372C3643.61 512.118 3639.21 505.611 3635.95 500.993C3632.7 496.374 3627.14 488.397 3623.46 483.254C3619.79 478.006 3612.55 468.14 3607.41 461.213C3602.26 454.285 3596.07 446.203 3593.76 443.159C3591.45 440.115 3587.68 435.392 3585.37 432.558C3583.06 429.829 3576.76 422.062 3571.2 415.45C3565.74 408.837 3555.88 397.187 3549.37 389.734C3542.76 382.282 3527.43 365.699 3515.16 353.103C3502.98 340.403 3485.66 323.399 3476.74 315.317C3467.82 307.131 3456.7 297.159 3452.08 293.171C3447.46 289.077 3438.75 281.625 3432.66 276.692C3426.58 271.759 3417.87 264.622 3413.25 260.948C3408.63 257.274 3398.45 249.507 3390.68 243.734C3382.92 237.962 3372.95 230.719 3368.65 227.571C3364.34 224.422 3353.22 216.865 3343.98 210.777C3334.75 204.689 3321.52 195.977 3314.6 191.569C3307.67 187.161 3301.69 183.487 3301.16 183.487C3300.74 183.487 3295.08 180.233 3288.67 176.35C3282.17 172.361 3270.41 165.749 3262.65 161.445C3254.88 157.247 3239.24 149.165 3228.01 143.497C3216.78 137.829 3200.72 130.062 3192.33 126.179C3183.93 122.4 3168.82 115.683 3158.74 111.379C3148.67 107.076 3129.78 99.5187 3116.76 94.6905C3103.75 89.7574 3080.66 81.4655 3065.34 76.4274C3050.02 71.2844 3023.57 63.0974 3006.57 58.2693C2989.57 53.3361 2961.86 45.9889 2945.17 41.8954C2928.48 37.802 2897 30.8746 2875.38 26.5712C2853.76 22.3728 2822.27 16.9148 2805.59 14.6057C2788.9 12.2966 2767.39 9.35767 2757.84 8.20311C2748.28 7.04854 2729.39 5.15925 2715.86 4.00469C2702.32 2.85012 2682.17 1.48564 2671.25 0.855875Z" fill="#FEFFFF"/>
<path d="M851.941 227.571C844.174 227.046 825.283 226.626 809.961 226.731C794.638 226.836 780.05 227.046 777.426 227.256C774.802 227.466 763.048 228.305 751.189 229.25C739.329 230.09 724.426 231.559 718.129 232.399C711.832 233.238 700.183 235.128 692.417 236.597C684.65 237.962 673.001 240.376 666.704 241.845C660.407 243.21 650.436 245.414 644.664 246.568C638.892 247.723 624.199 251.711 612.13 255.385C600.06 259.059 586.102 263.467 581.169 265.146C576.237 266.826 566.371 270.604 559.13 273.543C551.888 276.482 542.968 280.156 539.189 281.94C535.411 283.619 525.336 288.448 516.625 292.751C508.019 296.949 493.851 304.716 485.14 309.86C476.534 315.003 463.625 323.189 456.594 328.018C449.457 332.741 438.332 340.823 431.93 345.861C425.423 350.899 414.928 359.611 408.526 365.174C402.124 370.737 390.79 381.652 383.233 389.315C375.572 397.082 365.812 407.683 361.404 412.826C356.891 417.969 349.544 427.73 344.927 434.343C340.309 440.955 332.542 453.026 327.82 461.108C323.097 469.19 314.176 485.983 307.984 498.369C301.897 510.754 294.236 526.813 291.087 534.055C287.939 541.297 281.117 558.301 275.974 571.841C270.832 585.381 262.96 608.262 258.448 622.747C253.935 637.126 247.848 659.168 244.699 671.553C241.656 683.939 237.772 700.312 235.988 707.765C234.204 715.217 231.056 731.381 229.062 743.451C226.963 755.522 224.129 772.84 222.87 781.762C220.666 796.666 220.561 798.555 221.925 804.328C222.66 807.792 224.549 812.305 225.913 814.3C227.382 816.294 230.006 819.023 231.895 820.282C233.784 821.647 238.822 823.326 243.02 824.271C249.632 825.635 271.986 825.845 420.91 825.53C577.181 825.32 591.559 825.215 596.387 823.536C599.641 822.487 603.314 820.072 606.147 817.238C609.296 814.09 611.185 811.046 612.235 807.477C612.969 804.538 614.858 793.307 616.328 782.287C617.797 771.266 620.211 755.522 621.68 747.125C623.149 738.728 625.458 725.083 626.928 716.686C628.397 708.289 631.86 692.231 634.799 681C637.633 669.769 641.306 655.284 643.09 648.987C644.769 642.689 648.023 631.983 650.331 625.371C652.64 618.758 656.314 608.367 658.623 602.279C660.826 596.192 665.864 584.646 669.747 576.564C673.63 568.482 679.718 557.146 683.286 551.374C687.694 544.341 693.256 537.519 700.288 530.277C708.684 521.775 712.252 518.941 718.129 516.212L725.476 512.748C748.355 513.798 753.183 514.532 757.486 516.212C760.634 517.471 765.777 520.305 768.82 522.614C773.123 525.868 775.117 528.387 777.951 534.265C780.155 538.778 782.149 544.971 782.883 549.274C783.513 553.578 783.723 561.87 783.408 569.217C782.988 576.144 782.044 585.801 781.204 590.734C780.26 595.667 777.216 607.527 774.278 617.184C771.444 626.945 766.721 640.485 763.783 647.412L763.231 648.761C760.643 655.087 758.535 660.238 758.535 660.532C758.535 660.847 754.442 669.664 749.404 680.16C744.367 690.761 736.181 706.925 731.248 716.162C726.315 725.398 718.234 739.778 713.407 748.174C708.579 756.571 703.436 765.283 701.862 767.592C700.288 769.901 697.559 774.1 695.88 777.039C694.201 779.977 683.601 793.622 672.371 807.372C661.141 821.122 649.387 835.607 646.238 839.595C643.09 843.479 636.898 851.036 632.49 856.494C628.082 861.847 620.736 870.768 616.223 876.331C611.865 881.58 604.144 891.128 598.438 898.185L597.437 899.422C591.664 906.455 584.318 915.481 581.169 919.365C578.021 923.249 571.619 931.016 567.001 936.683C562.383 942.246 555.981 950.118 552.833 954.002C549.684 957.885 541.603 967.857 534.886 976.149C528.169 984.441 519.039 995.671 514.526 1001.13C510.013 1006.59 503.716 1014.35 500.463 1018.24C497.209 1022.23 491.962 1028.63 488.813 1032.51C485.665 1036.4 475.275 1049.2 465.724 1060.96C456.174 1072.61 443.475 1088.14 437.493 1095.49C431.615 1102.73 423.114 1113.12 418.602 1118.58C414.194 1124.04 408.316 1131.39 405.378 1134.95C402.544 1138.52 393.938 1148.91 386.487 1158.05C379.035 1167.18 370.22 1177.78 367.071 1181.77C363.923 1185.65 358.99 1191.84 356.051 1195.41C353.218 1198.98 348.18 1205.07 345.031 1208.95C341.883 1212.73 334.432 1221.76 328.554 1229C322.677 1236.14 312.182 1249.05 305.15 1257.76C298.119 1266.36 288.778 1277.91 284.37 1283.26C279.962 1288.72 273.98 1296.07 271.042 1299.74C268.208 1303.31 260.652 1312.55 254.25 1320.31C247.953 1327.98 239.452 1338.37 235.359 1343.3C231.266 1348.34 224.234 1357.05 219.616 1362.61C214.998 1368.28 208.596 1376.15 205.448 1380.04C202.299 1383.92 197.367 1390.11 194.428 1393.79C191.594 1397.35 187.291 1402.6 184.983 1405.23C182.674 1407.96 172.074 1420.87 161.369 1434.09C150.664 1447.21 140.274 1460.02 138.28 1462.43C136.286 1464.95 131.563 1470.72 127.785 1475.24C124.007 1479.85 113.931 1492.34 105.22 1502.95C96.6145 1513.55 86.6443 1525.72 83.1809 1530.03C79.7175 1534.33 74.2601 1541.05 71.1116 1544.93L70.435 1545.76C67.0241 1549.97 60.4511 1558.08 55.1592 1564.45C49.5969 1571.27 44.6642 1577.99 44.0345 1579.46C43.5098 1580.93 41.0959 1591.74 38.787 1603.6C36.3731 1615.46 33.9593 1628.16 33.3296 1631.94C32.7585 1635.37 29.3389 1653.3 25.4975 1673.44L24.3039 1679.7C20.0009 1702.27 12.6544 1740.26 7.93165 1764.19C1.31979 1798.2 -0.359411 1808.91 0.0603898 1813C0.37524 1815.83 1.21484 1820.03 1.84454 1822.13C2.47424 1824.54 4.99305 1828.22 8.14155 1831.37C12.7594 1835.98 14.2287 1836.82 20.7356 1838.19C27.2425 1839.55 93.571 1839.76 581.904 1839.76H1135.83C1134.47 1850.78 1131.95 1866.95 1129.53 1882.8C1127.02 1898.65 1123.34 1922.47 1121.24 1935.8C1119.25 1949.13 1116.31 1968.03 1114.84 1977.79C1113.27 1987.55 1110.01 2008.43 1107.49 2023.97C1104.98 2039.5 1102.14 2057.98 1101.2 2064.9C1100.36 2071.83 1099.31 2079.18 1098.99 2081.17C1098.57 2083.17 1098.89 2087.68 1099.62 2091.14C1100.36 2094.61 1102.14 2099.12 1103.51 2101.11C1104.98 2103.11 1107.91 2106.05 1110.01 2107.52C1112.11 2109.09 1116.31 2110.88 1119.35 2111.51C1123.24 2112.35 1182.32 2112.66 1332.61 2112.66C1483.32 2112.66 1541.88 2112.35 1545.98 2111.51C1548.91 2110.77 1553.32 2108.99 1555.63 2107.41C1557.94 2105.84 1560.98 2102.79 1562.35 2100.49C1564.24 2097.65 1567.28 2086.84 1572.53 2064.38C1576.73 2046.75 1580.4 2030.48 1580.71 2028.17C1581.13 2025.86 1584.28 2012.11 1587.75 1997.73C1591.21 1983.24 1594.78 1967.92 1595.62 1963.62C1596.56 1959.31 1598.98 1948.4 1600.97 1939.48C1602.96 1930.55 1605.8 1918.48 1607.27 1912.71C1608.63 1906.94 1611.46 1894.66 1613.35 1885.42C1615.35 1876.18 1618.08 1863.27 1619.55 1856.77L1622.27 1845.01C1830.81 1844.49 1841.62 1844.28 1846.34 1842.7C1849.39 1841.76 1853.38 1839.24 1855.79 1836.82C1859.15 1833.57 1861.25 1829.69 1866.49 1816.57C1870.06 1807.65 1875.2 1794.53 1877.83 1787.28L1878.48 1785.56C1881.09 1778.63 1884.15 1770.49 1885.7 1766.82C1887.38 1762.83 1892.31 1750.02 1896.82 1738.48C1901.23 1726.93 1907.84 1709.72 1911.52 1700.17C1915.09 1690.61 1921.38 1674.35 1925.37 1663.95C1929.36 1653.56 1934.08 1641.49 1935.87 1637.19C1937.65 1632.89 1941.22 1623.65 1943.84 1616.72C1946.47 1609.8 1952.34 1594.16 1957.07 1582.09C1961.68 1570.02 1966.2 1557.42 1967.04 1554.27C1968.4 1549.02 1968.4 1547.87 1966.72 1541.68C1965.67 1537.9 1963.78 1533.49 1962.42 1531.7C1961.05 1529.92 1958.74 1527.61 1957.17 1526.46C1955.7 1525.41 1952.34 1523.73 1949.72 1522.78C1945.63 1521.42 1929.36 1521.1 1825.35 1520.68L1705.61 1520.16C1711.17 1493.29 1716.21 1469.25 1720.4 1449.31C1724.6 1429.37 1728.59 1410.06 1729.32 1406.28C1729.95 1402.5 1733.73 1384.55 1737.61 1366.39C1741.5 1348.23 1745.49 1329.34 1746.43 1324.41C1747.38 1319.47 1751.26 1301.11 1754.93 1283.47C1758.71 1265.84 1765.43 1234.25 1769.83 1213.15C1774.24 1192.05 1781.17 1159.3 1785.26 1140.2C1789.36 1121.1 1793.45 1101.05 1794.5 1095.59C1795.44 1090.14 1799.64 1069.77 1803.73 1050.46C1807.93 1031.15 1814.33 1000.6 1818.22 982.761C1821.99 964.918 1826.51 943.401 1828.08 935.004C1829.66 926.607 1833.75 906.77 1837.21 890.921C1840.57 875.072 1844.03 859.013 1844.66 855.234C1845.4 851.456 1849.18 833.297 1853.17 814.824C1857.05 796.351 1863.77 765.178 1867.96 745.55C1872.16 725.923 1876.36 705.351 1877.3 699.893C1878.35 694.435 1882.24 675.542 1886.01 657.908C1889.22 642.951 1894.24 619.308 1898.12 601.01L1900.08 591.783L1900.36 590.473C1907.32 557.977 1907.4 557.589 1905.95 551.374C1905.12 547.91 1903.44 543.607 1902.18 541.717C1900.92 539.933 1898.19 537.204 1896.19 535.734C1894.1 534.16 1889.37 532.271 1885.17 531.431C1878.67 529.962 1847.81 529.857 1624.9 530.067C1391.17 530.381 1371.55 530.486 1366.72 532.166C1363.78 533.11 1359.58 535.734 1357.28 537.939C1354.76 540.353 1349.4 548.54 1344.05 558.196C1339.01 567.118 1333.56 577.089 1331.88 580.238C1330.09 583.387 1326 590.944 1322.64 597.031C1319.28 603.119 1313.2 614.245 1309 621.697C1304.8 629.149 1298.4 640.8 1294.83 647.412C1291.16 654.025 1286.54 662.527 1284.55 666.305C1282.66 670.084 1278.35 677.851 1275.2 683.624C1271.95 689.397 1267.12 698.108 1264.29 703.041L1263.84 703.848C1261.06 708.88 1256.57 716.989 1253.69 722.459C1250.54 728.232 1244.98 738.413 1241.31 745.026C1237.74 751.638 1231.34 763.289 1227.14 770.741C1222.94 778.193 1216.75 789.634 1213.28 795.932C1209.84 802.007 1205.33 810.426 1202.94 814.876L1202.68 815.349C1200.38 819.653 1196.81 826.055 1194.71 829.519C1192.71 832.983 1189.46 838.86 1187.57 842.639C1185.68 846.417 1181.06 854.919 1177.39 861.532L1177.36 861.58C1173.69 868.19 1168.46 877.603 1165.64 882.524L1165.2 883.313C1162.42 888.344 1157.92 896.465 1155.04 901.942C1151.89 907.714 1146.33 917.896 1142.65 924.508C1139.08 931.121 1132.68 942.771 1128.48 950.223C1124.29 957.676 1118.41 968.382 1115.37 973.839C1112.22 979.297 1107.81 987.589 1105.4 992.208C1102.98 996.826 1098.15 1005.54 1094.59 1011.63C1091.02 1017.71 1088.08 1022.96 1088.08 1023.38C1088.08 1023.91 1084.09 1031.46 1079.16 1040.17C1074.33 1048.99 1067.09 1062.01 1063.21 1069.14C1059.32 1076.28 1052.71 1088.04 1048.62 1095.38C1044.52 1102.73 1038.02 1114.59 1034.03 1121.83C1030.04 1129.08 1024.69 1138.94 1022.17 1143.88C1019.55 1148.81 1015.45 1156.16 1013.04 1160.14C1010.63 1164.13 1007.48 1169.8 1006.01 1172.74C1004.64 1175.57 999.711 1184.81 994.988 1193.21C990.37 1201.6 982.499 1215.98 977.356 1225.22C972.319 1234.46 966.231 1245.37 963.922 1249.36C961.614 1253.35 957.94 1260.07 955.841 1264.06C953.742 1268.04 949.544 1275.92 946.501 1281.37L945.022 1284.03C941.974 1289.49 937.832 1296.92 935.061 1301.84C931.913 1307.61 927.82 1315.17 925.931 1318.63C924.27 1321.68 921.151 1327.32 918.567 1331.99L917.535 1333.85C914.701 1338.79 910.713 1346.13 908.614 1350.12C906.515 1354.11 901.792 1362.93 898.119 1369.54C894.446 1376.15 887.519 1388.54 882.691 1397.04L881.919 1398.45C877.542 1406.42 873.98 1412.91 873.98 1413.31C873.98 1413.83 870.937 1419.4 867.263 1425.69C863.59 1431.99 858.343 1441.44 855.614 1446.69C852.885 1451.93 849.737 1457.5 848.582 1459.28C847.533 1461.07 843.02 1469.04 838.612 1477.12C834.309 1485.21 828.957 1495.18 826.753 1499.17C824.654 1503.16 820.456 1510.92 817.517 1516.17L812.06 1525.93H574.348C580.959 1519 589.25 1510.19 597.017 1501.79C604.783 1493.39 620.631 1476.18 632.175 1463.38C643.615 1450.67 657.888 1434.83 663.66 1428.21C669.537 1421.6 678.773 1411.31 684.125 1405.23C689.583 1399.24 695.46 1392.63 697.139 1390.64C698.818 1388.54 702.702 1384.34 705.64 1381.09C708.474 1377.94 712.252 1373.63 713.826 1371.64C715.505 1369.65 719.494 1364.92 722.852 1361.14C726.21 1357.37 734.082 1348.44 740.274 1341.2C746.571 1333.85 756.436 1322.41 762.208 1315.49C767.981 1308.66 774.592 1300.79 776.901 1298.17C779.21 1295.44 785.297 1288.2 790.545 1281.9C795.792 1275.6 803.034 1266.89 806.812 1262.48C810.59 1257.97 817.727 1249.47 822.66 1243.48C827.592 1237.5 838.402 1224.17 846.798 1213.78C855.089 1203.49 864.64 1191.63 867.893 1187.54C870.96 1183.8 876.392 1176.91 880.588 1171.58L881.747 1170.12C886.049 1164.66 897.489 1149.96 907.04 1137.58C916.695 1125.19 934.327 1102 946.186 1085.94C958.15 1069.98 971.164 1052.35 975.257 1046.79L975.914 1045.88C979.968 1040.26 985.508 1032.59 988.691 1028.31C991.944 1023.7 998.556 1014.46 1003.17 1007.64C1007.9 1000.92 1016.29 988.744 1021.75 980.662C1027.31 972.58 1035.6 960.195 1040.22 953.162C1044.94 946.025 1051.98 935.214 1056.07 929.021L1056.65 928.104C1060.64 921.808 1066.41 912.689 1069.71 907.19C1073.18 901.417 1077.37 894.594 1079.05 891.97C1080.63 889.346 1085.87 880.53 1090.81 872.238C1095.63 864.051 1099.62 857.123 1099.62 856.809C1099.62 856.494 1102.35 851.456 1105.71 845.473C1109.07 839.595 1116.21 826.475 1121.45 816.399C1126.6 806.323 1134.99 789.109 1140.03 778.088C1145.07 767.067 1152.31 749.644 1156.3 739.253C1160.18 728.862 1164.9 715.637 1166.58 709.864C1168.37 704.091 1171.93 691.601 1174.56 682.049C1177.18 672.498 1180.54 659.798 1181.9 653.71C1183.27 647.622 1184.74 640.59 1185.16 637.966C1185.58 635.342 1186 632.088 1186.21 630.619C1186.42 629.149 1187.36 622.537 1188.2 615.924C1189.15 609.312 1190.3 597.451 1190.93 589.684C1191.45 581.917 1191.98 570.057 1191.98 563.444C1191.98 556.832 1191.45 545.181 1190.93 537.729C1190.3 530.277 1188.62 516.527 1187.26 507.29C1185.89 498.054 1183.58 485.563 1182.01 479.476C1180.54 473.388 1177.39 462.787 1175.19 455.86C1172.98 448.932 1169.94 439.696 1168.37 435.392C1166.9 431.089 1161.86 420.173 1157.24 411.251C1152.52 402.33 1146.12 390.994 1142.97 386.061C1139.71 381.128 1133 371.681 1127.96 365.069C1123.03 358.456 1112.53 346.596 1104.77 338.829C1097 331.062 1084.51 319.936 1077.06 314.058C1069.5 308.285 1062.05 302.512 1060.27 301.358C1058.48 300.203 1051.87 295.9 1045.57 291.911C1039.28 287.818 1025.95 280.471 1016.19 275.537C1006.43 270.709 994.568 265.146 989.95 263.257C985.332 261.473 975.257 257.589 967.701 254.755C960.039 251.921 946.816 247.723 938.315 245.309C929.709 243 914.281 239.011 903.891 236.387C893.501 233.868 880.802 231.034 875.555 230.195C870.307 229.355 859.707 228.2 851.941 227.571Z" fill="#FEFFFF"/>
<path d="M2781.97 815.139C2775.47 813.355 2755.42 813.25 2386.31 813.355C2024.13 813.355 1997.05 813.565 1991.17 815.139C1987.71 816.189 1983.62 817.868 1982.15 819.023C1980.57 820.177 1978.27 822.591 1976.9 824.271C1975.54 825.95 1967.56 840.855 1959.06 857.333C1950.66 873.812 1934.92 904.671 1924.01 926.082C1913.2 947.494 1898.5 976.254 1891.47 990.108C1884.44 1003.96 1869.33 1033.67 1857.89 1056.23C1845.61 1080.48 1836.58 1099.48 1835.74 1102.94C1834.59 1107.77 1834.69 1109.87 1835.95 1115.54C1836.69 1119.31 1838.47 1123.83 1839.73 1125.61C1841.1 1127.5 1843.51 1130.02 1845.29 1131.39C1847.08 1132.75 1850.54 1134.43 1853.17 1135.16C1856.94 1136.32 1897.14 1136.53 2060.13 1136.53H2262.47C2261.42 1140.2 2260.06 1143.35 2258.8 1145.97C2257.54 1148.6 2255.02 1154.27 2253.23 1158.57C2251.56 1162.87 2247.57 1172.11 2244.31 1179.04C2241.17 1185.96 2236.44 1196.57 2233.82 1202.65C2231.2 1208.74 2225.21 1222.39 2220.49 1233.09C2215.77 1243.8 2209.68 1257.76 2206.85 1264.06C2204.12 1270.35 2199.08 1281.48 2195.83 1288.72C2192.57 1295.96 2188.38 1305.62 2186.38 1310.24C2184.49 1314.86 2180.71 1323.36 2177.99 1329.13C2175.26 1334.9 2172.42 1341.31 2171.69 1343.3C2170.95 1345.29 2167.28 1353.8 2163.5 1362.19C2159.72 1370.59 2153.95 1383.5 2150.59 1391.06C2147.34 1398.61 2142.3 1410.16 2139.47 1416.77C2136.64 1423.39 2132.02 1433.78 2129.18 1439.86C2126.35 1445.95 2121.94 1455.82 2119.42 1461.91C2116.8 1467.99 2112.5 1477.86 2109.77 1483.95C2107.04 1490.04 2101.69 1502.32 2097.7 1511.24C2093.71 1520.16 2086.78 1536.01 2082.17 1546.4C2077.55 1556.79 2070.83 1571.9 2067.26 1579.99C2063.7 1588.07 2058.76 1599.4 2056.24 1605.18C2053.83 1610.95 2049.42 1620.92 2046.59 1627.22C2043.65 1633.52 2037.14 1648.21 2032.11 1659.76C2027.07 1671.3 2019.51 1688.52 2015.31 1698.07C2011.11 1707.62 2004.71 1722 2001.14 1730.08C1997.47 1738.16 1993.06 1748.34 1991.17 1752.65C1989.6 1756.45 1985.89 1764.84 1982.59 1772.32L1981.31 1775.21C1977.74 1783.29 1971.55 1797.25 1967.56 1806.18C1963.68 1815.1 1956.96 1830 1952.87 1839.24C1948.67 1848.48 1943.53 1860.23 1941.32 1865.48C1939.22 1870.73 1934.82 1880.7 1931.56 1887.84C1928.2 1894.87 1925.58 1900.85 1925.58 1901.17C1925.58 1901.48 1921.49 1910.82 1916.55 1921.95C1911.62 1932.97 1904.38 1949.45 1900.39 1958.37C1896.4 1967.29 1890 1981.78 1886.22 1990.38C1882.34 1999.09 1877.2 2010.85 1874.78 2016.62L1873.97 2018.49C1871.45 2024.28 1867.9 2032.43 1865.44 2037.61C1863.17 2042.62 1859.94 2049.85 1857.69 2054.89L1856.73 2057.03C1854.63 2061.96 1849.39 2074.04 1845.08 2083.8C1840.89 2093.56 1836.69 2104.37 1835.85 2107.73C1834.48 2112.98 1834.48 2114.45 1835.85 2120.32C1836.69 2123.89 1838.58 2128.19 1839.84 2129.98C1841.2 2131.76 1843.93 2134.28 1845.92 2135.65C1847.92 2137.12 1851.91 2138.9 1854.74 2139.64C1858.94 2140.69 1898.29 2141 2052.05 2141C2218.39 2141 2244.84 2140.79 2249.88 2139.43C2253.03 2138.59 2257.12 2136.8 2259.01 2135.54C2260.79 2134.18 2263.21 2131.97 2264.36 2130.5C2265.51 2129.03 2269.82 2119.8 2274.02 2110.04C2278.11 2100.28 2284.09 2085.79 2287.34 2078.02C2290.49 2070.26 2293.85 2062.49 2294.69 2060.71C2295.63 2058.92 2298.78 2051.47 2301.83 2043.91C2304.87 2036.35 2312.43 2018.2 2318.62 2003.5C2324.81 1988.81 2332.16 1971.28 2334.89 1964.67C2337.61 1958.05 2342.44 1946.51 2345.59 1938.95C2348.84 1931.39 2353.88 1919.43 2356.93 1912.19C2359.97 1904.94 2365.85 1890.77 2370.04 1880.7L2371.44 1877.35C2375.58 1867.4 2381.15 1854.04 2384.53 1846.06C2388.31 1837.14 2394.92 1821.29 2399.12 1810.9C2403.42 1800.51 2408.88 1787.6 2411.29 1782.35C2413.7 1777 2415.7 1772.27 2415.7 1771.85C2415.7 1771.33 2419.27 1762.72 2423.46 1752.65C2427.77 1742.57 2435.01 1725.36 2439.63 1714.34C2444.24 1703.31 2450.54 1688.52 2453.58 1681.27C2456.52 1674.03 2462.51 1659.86 2466.6 1649.79C2470.8 1639.71 2477.83 1622.92 2482.13 1612.52C2486.43 1602.13 2491.89 1589.43 2494.31 1584.18C2496.61 1578.94 2498.61 1574.21 2498.61 1573.69C2498.61 1573.16 2502.39 1563.93 2506.9 1553.22C2511.52 1542.52 2518.86 1525.09 2523.38 1514.39C2527.78 1503.68 2535.34 1485.63 2540.17 1474.29C2545 1462.85 2548.98 1453.3 2548.98 1452.98C2548.98 1452.67 2552.24 1444.8 2556.23 1435.46C2560.21 1426.01 2567.25 1409.43 2571.86 1398.4C2576.59 1387.38 2581.31 1375.84 2582.57 1372.69C2583.83 1369.54 2587.29 1361.04 2590.44 1353.8C2593.48 1346.55 2599.78 1331.75 2604.4 1320.73C2609.02 1309.71 2615.31 1294.91 2618.36 1287.67C2621.29 1280.43 2627.28 1266.26 2631.48 1256.18C2635.57 1246.11 2641.97 1230.78 2645.54 1222.07C2649.11 1213.46 2654.56 1200.55 2657.71 1193.52C2660.86 1186.38 2663.38 1180.3 2663.38 1179.88C2663.38 1179.38 2666.86 1171.08 2671.15 1160.84L2671.88 1159.09C2676.5 1148.07 2683.85 1130.86 2688.04 1120.78C2692.35 1110.71 2698.43 1096.01 2701.69 1088.25C2705.05 1080.48 2708.82 1071.24 2710.29 1067.78C2711.66 1064.32 2716.28 1053.19 2720.58 1043.11C2724.78 1033.04 2732.02 1015.82 2736.64 1004.8C2741.36 993.782 2746.08 982.236 2747.34 979.088C2748.6 975.939 2752.06 967.437 2755.21 960.195C2758.26 952.952 2764.45 938.363 2768.85 927.657C2773.37 916.951 2780.61 899.527 2785.12 888.822C2789.64 878.116 2794.78 865.835 2796.46 861.532C2798.24 857.228 2800.34 850.826 2801.28 847.362C2802.86 841.484 2802.75 840.54 2801.07 834.242C2800.03 830.464 2798.35 826.16 2797.19 824.691C2796.04 823.116 2793.73 820.807 2791.94 819.443C2790.16 818.078 2785.75 816.084 2781.97 815.139Z" fill="#FEFFFF"/>
<path d="M2651.31 27.096C2638.61 26.4663 2609.54 26.1514 2586.77 26.2563C2563.99 26.3613 2536.81 26.7811 2526.42 27.201C2516.03 27.7258 2497.14 28.7754 2484.44 29.72C2471.74 30.6647 2451.49 32.344 2439.31 33.4986C2427.14 34.6532 2409.51 36.5425 2399.96 37.697C2390.4 38.8516 2374.35 40.9508 2364.27 42.4203C2354.2 43.7847 2336.04 46.6187 2323.87 48.7179C2311.69 50.7121 2293.12 54.0709 2282.41 56.0651C2271.71 58.1643 2252.19 62.1528 2238.86 64.9868C2225.53 67.8207 2201.49 73.4885 2185.33 77.582C2169.17 81.5705 2146.29 87.7632 2134.43 91.1219C2122.57 94.4806 2105.78 99.4138 2097.17 102.143C2088.46 104.767 2071.46 110.33 2059.39 114.423C2047.32 118.517 2027.38 125.444 2015.31 129.957C2003.24 134.471 1984.98 141.398 1974.91 145.491C1964.83 149.48 1947.31 156.827 1936.08 161.76C1924.85 166.588 1908.79 173.831 1900.39 177.714C1892 181.598 1873.11 190.729 1858.41 198.077C1843.72 205.424 1823.15 216.13 1812.76 221.798C1802.37 227.466 1786.52 236.282 1777.6 241.53C1768.68 246.778 1753.99 255.49 1745.07 260.948C1736.15 266.406 1719.35 277.112 1707.81 284.669C1696.26 292.226 1676.43 305.451 1663.73 314.058C1651.03 322.665 1634.55 334 1627 339.248C1619.44 344.496 1604.85 354.678 1594.46 362.025C1584.22 369.167 1555.6 389.271 1530.45 406.939L1529.39 407.683C1504 425.631 1481.01 441.69 1478.18 443.579C1475.45 445.468 1473.25 447.358 1473.25 447.987C1473.25 448.617 1475.97 453.55 1479.23 459.008C1482.59 464.466 1485.52 468.98 1485.84 468.98C1486.15 468.98 1497.91 462.577 1512.08 454.705C1526.25 446.938 1543.04 436.862 1549.54 432.453C1555.95 427.94 1572.32 416.08 1585.75 405.898C1599.19 395.717 1617.97 381.862 1627.52 375.04C1637.07 368.322 1654.49 356.252 1666.35 348.275C1678.21 340.403 1694.48 329.697 1702.56 324.449C1710.64 319.306 1727.43 308.915 1739.82 301.358C1752.2 293.906 1769.41 283.724 1778.13 278.791C1786.73 273.858 1802.79 265.041 1813.81 259.059C1824.83 253.181 1846.03 242.16 1861.04 234.603C1876.04 227.151 1897.03 216.97 1907.74 212.141C1918.44 207.208 1935.87 199.441 1946.57 194.823C1957.28 190.205 1975.43 182.647 1986.98 178.029C1998.52 173.411 2016.26 166.588 2026.33 162.81C2036.41 159.031 2057.19 151.789 2072.51 146.541C2087.83 141.398 2113.13 133.421 2128.66 128.803C2144.19 124.184 2171.16 116.837 2188.48 112.534C2205.8 108.23 2231.51 102.353 2245.68 99.5187C2259.85 96.6848 2281.05 92.6963 2292.91 90.7021C2304.77 88.6029 2323.45 85.7689 2334.36 84.2995C2345.28 82.83 2364.9 80.4159 2377.92 79.0515C2390.93 77.687 2411.39 75.7977 2423.57 74.853C2435.74 74.0134 2455.05 72.8588 2466.6 72.229C2478.14 71.7042 2506.9 71.1794 2530.62 71.1794C2554.34 71.1794 2582.88 71.7042 2594.11 72.229C2605.34 72.8588 2624.97 74.0134 2637.67 74.853C2650.37 75.7977 2669.99 77.477 2681.22 78.6316C2692.45 79.7862 2713.02 82.0953 2726.87 83.7747C2740.73 85.559 2762.24 88.6029 2774.63 90.7021C2787.01 92.6963 2808.74 96.6848 2822.9 99.5187C2837.07 102.248 2860.16 107.391 2874.33 110.854C2888.5 114.318 2905.19 118.622 2911.59 120.511C2917.99 122.295 2933 126.913 2945.17 130.692C2957.35 134.366 2977.39 141.188 2989.78 145.701C3002.16 150.215 3020.63 157.247 3030.71 161.445C3040.78 165.539 3057.36 172.781 3067.44 177.399C3077.51 181.913 3094.83 190.31 3105.74 195.977C3116.66 201.645 3133.45 210.777 3143 216.235C3152.55 221.693 3166.93 230.299 3175.01 235.443C3183.09 240.481 3196.32 249.192 3204.4 254.755C3212.48 260.213 3226.44 270.289 3235.36 277.007C3244.28 283.724 3257.29 293.801 3264.22 299.363C3271.15 305.031 3284.37 316.262 3293.61 324.449C3302.84 332.636 3321.31 350.164 3334.64 363.494C3347.97 376.719 3365.18 394.668 3372.95 403.379C3380.71 411.986 3392.99 426.156 3400.13 434.867C3407.37 443.474 3417.34 455.755 3422.27 462.157L3422.65 462.651C3427.54 469.139 3435.96 480.301 3441.48 487.872C3447.15 495.64 3457.64 510.754 3464.67 521.46C3471.71 532.166 3481.99 548.435 3487.45 557.671C3493.01 566.908 3501.72 582.232 3506.97 591.783C3512.11 601.335 3520.09 616.659 3524.5 625.896C3528.9 635.132 3536.04 650.456 3540.24 660.008C3544.44 669.559 3551.26 686.038 3555.46 696.744C3559.65 707.45 3566.48 726.763 3570.78 739.778C3575.08 752.793 3580.64 770.951 3583.27 780.187C3585.79 789.424 3589.77 804.538 3592.08 813.775C3594.39 823.011 3597.65 837.601 3599.43 846.312C3601.11 854.919 3603.94 870.348 3605.73 880.425C3607.51 890.501 3609.82 905.615 3610.97 914.012C3612.13 922.409 3614.02 938.888 3615.17 950.748C3616.33 962.609 3617.9 981.187 3618.64 992.208C3619.48 1004.38 3620 1031.46 3619.9 1061.48C3619.9 1096.54 3619.37 1118.27 3618.11 1136.53C3617.06 1150.7 3615.38 1171.69 3614.12 1183.24C3612.97 1194.78 3610.87 1212.94 3609.4 1223.65C3608.04 1234.35 3605.62 1250.41 3604.26 1259.33C3602.79 1268.25 3600.37 1282.21 3598.91 1290.3C3597.44 1298.38 3594.18 1314.23 3591.66 1325.46C3589.15 1336.69 3585.16 1353.69 3582.74 1363.24C3580.33 1372.79 3575.4 1390.95 3571.72 1403.65C3568.05 1416.35 3561.23 1437.87 3556.72 1451.41C3552.1 1464.95 3544.75 1485.52 3540.24 1497.07C3535.83 1508.61 3527.96 1527.72 3522.92 1539.58C3517.78 1551.44 3509.59 1569.8 3504.56 1580.51C3499.62 1591.22 3489.76 1610.74 3482.83 1624.07C3475.8 1637.4 3464.78 1657.45 3458.38 1668.68C3451.87 1679.91 3441.69 1696.91 3435.81 1706.46C3429.94 1716.01 3419.34 1732.28 3412.41 1742.67C3405.48 1753.07 3395.83 1767.24 3390.89 1774.16C3385.96 1781.09 3377.25 1793.16 3371.48 1800.93C3365.71 1808.69 3355.74 1821.71 3349.44 1829.79C3343.04 1837.87 3333.59 1849.73 3328.34 1856.03C3323.1 1862.33 3313.13 1874.19 3306.2 1882.27C3299.27 1890.35 3286.57 1904.73 3277.86 1914.29C3269.26 1923.84 3253.09 1941.05 3242.08 1952.6C3231.06 1964.14 3209.33 1985.66 3193.8 2000.46C3178.27 2015.26 3148.56 2043.07 3127.78 2062.38C3107 2081.7 3086.22 2101.11 3081.61 2105.52L3073.21 2113.61C3254.56 2113.71 3330.65 2114.03 3359.2 2114.44L3411.15 2115.18C3458.48 2058.29 3476.64 2036.14 3482.1 2029.22C3487.66 2022.29 3500.15 2006.02 3509.91 1993.01C3519.77 1979.99 3533 1962.04 3539.29 1953.12C3545.34 1944.7 3555.13 1930.47 3561.86 1920.69L3563.01 1919.01C3569.73 1909.25 3580.54 1892.66 3587.15 1882.27C3593.76 1871.88 3604.36 1854.67 3610.76 1843.96C3617.17 1833.26 3627.87 1814.57 3634.59 1802.5C3641.41 1790.43 3654.63 1764.93 3664.08 1745.82C3673.42 1726.72 3684.54 1703.63 3688.53 1694.39C3692.63 1685.16 3699.13 1670.04 3702.91 1660.81C3706.79 1651.57 3714.56 1631.73 3720.23 1616.72C3725.79 1601.71 3734.29 1577.89 3738.91 1563.72C3743.53 1549.55 3750.45 1527.61 3754.13 1514.91C3757.91 1502.21 3763.78 1480.48 3767.25 1466.63C3770.71 1452.77 3775.22 1433.88 3777.32 1424.64C3779.31 1415.41 3783.09 1396.31 3785.72 1382.14C3788.34 1367.97 3791.59 1348.34 3793.06 1338.58C3794.53 1328.82 3796.84 1310.13 3798.31 1297.12C3799.78 1284.1 3801.67 1264.58 3802.61 1253.56C3803.45 1242.54 3804.71 1221.55 3805.34 1206.85C3806.08 1190.48 3806.29 1165.81 3805.97 1143.35C3805.55 1123.2 3804.82 1099.79 3804.19 1091.4C3803.72 1083.87 3802.66 1070.78 3801.84 1060.67L3801.56 1057.28C3800.62 1046.89 3798.94 1030.1 3797.79 1020.02C3796.63 1009.95 3794.53 993.887 3793.06 984.336C3791.59 974.784 3788.34 955.471 3785.72 941.302C3783.09 927.132 3779.31 908.239 3777.32 899.318C3775.33 890.396 3771.55 874.547 3768.92 864.156C3766.3 853.765 3762.73 840.33 3761.05 834.242C3759.27 828.154 3754.76 813.25 3750.98 801.18C3747.2 789.109 3740.9 770.216 3737.02 759.195C3733.14 748.174 3726.53 730.751 3722.33 720.36C3718.13 709.969 3711.1 693.175 3706.58 683.099C3702.07 673.023 3694.73 656.964 3690.11 647.412C3685.49 637.861 3676.99 621.382 3671.22 610.676C3665.44 599.97 3657.26 585.381 3653.06 578.138C3648.86 570.896 3641.83 559.351 3637.53 552.423C3633.22 545.496 3625.35 533.425 3620.21 525.658C3615.07 517.891 3607.41 506.765 3603.42 500.993C3599.33 495.22 3591.77 484.829 3586.63 477.901C3581.38 470.974 3571.72 458.484 3565.01 450.087C3558.29 441.69 3548.63 429.934 3543.49 423.847C3538.24 417.759 3530.06 408.312 3525.13 402.854C3520.19 397.397 3509.28 385.641 3500.88 376.719C3492.49 367.798 3477.37 352.788 3467.3 343.237C3457.22 333.686 3440.75 318.886 3430.88 310.384C3420.91 301.778 3406.01 289.392 3397.82 282.885C3389.53 276.377 3378.09 267.56 3372.32 263.257C3366.55 258.954 3355 250.767 3346.61 244.889C3338.21 239.011 3326.46 231.034 3320.37 227.046L3320.19 226.933C3314.07 223.027 3303.19 216.085 3295.7 211.512C3288.15 206.998 3275.13 199.231 3266.63 194.403C3258.03 189.575 3243.23 181.388 3233.57 176.35C3223.81 171.207 3206.92 162.81 3196 157.562C3185.09 152.314 3170.18 145.386 3162.94 142.238C3155.7 139.089 3140.8 132.791 3129.88 128.383C3118.97 123.87 3099.76 116.627 3087.38 112.114C3074.99 107.706 3057.47 101.618 3048.55 98.6791C3039.63 95.7402 3026.19 91.4368 3018.64 89.1277C3011.08 86.8185 2992.92 81.6755 2978.23 77.687C2963.54 73.5935 2938.98 67.5058 2923.66 63.9371C2908.33 60.4734 2889.97 56.38 2882.73 54.9105C2875.48 53.4411 2859.01 50.3972 2845.99 48.0881C2832.98 45.779 2814.3 42.7351 2804.54 41.3706C2794.78 39.9012 2781.03 38.0119 2774.1 37.1722C2767.18 36.2276 2752.06 34.6532 2740.52 33.4986C2728.97 32.344 2709.35 30.6647 2696.96 29.72C2684.58 28.8804 2664.01 27.7258 2651.31 27.096Z" fill="#0910B1"/>
<path d="M1876.46 574.78C1877.83 567.957 1878.88 562.394 1878.88 562.394C1878.88 562.394 1878.35 562.814 1877.72 563.234C1876.99 563.654 1875.83 565.648 1874.89 567.642C1874.05 569.637 1866.18 586.64 1857.47 605.428C1848.65 624.216 1838.47 645.943 1834.8 653.71C1831.23 661.477 1816.96 692.021 1803.31 721.41C1789.57 750.798 1766.79 799.71 1752.73 830.044C1738.56 860.377 1718.93 902.361 1709.17 923.458C1699.31 944.555 1685.03 975.204 1677.37 991.683C1669.71 1008.16 1652.08 1045.95 1638.23 1075.65C1624.37 1105.35 1601.39 1154.69 1587.12 1185.33C1572.84 1215.98 1558.26 1247.37 1554.58 1255.13C1551.12 1262.46 1544.02 1277.8 1538.29 1290.17L1537.27 1292.39C1532.28 1302.97 1526.79 1314.72 1523.76 1321.2L1522.26 1324.41C1520.05 1329.34 1516.8 1336.16 1515.23 1339.63C1513.65 1343.09 1509.03 1353.06 1504.94 1361.67C1500.95 1370.38 1486.05 1402.18 1471.88 1432.52C1457.82 1462.85 1440.08 1500.85 1432.52 1517.01C1425.07 1533.17 1410.7 1564.14 1400.52 1585.76C1391.26 1605.62 1382.19 1625.21 1379.22 1631.61L1378.58 1632.99C1376.48 1637.29 1366.72 1658.39 1356.75 1679.7C1346.78 1701.01 1335.45 1725.36 1331.56 1733.75C1327.68 1742.15 1319.49 1759.78 1313.2 1773.11C1307 1786.44 1294.2 1814.05 1284.65 1834.52C1275.1 1854.98 1255.68 1896.55 1241.62 1926.88C1227.45 1957.21 1212.65 1988.81 1208.77 1997.2C1204.89 2005.6 1200.48 2015.05 1199.01 2018.2C1197.65 2021.34 1194.29 2028.48 1191.77 2033.94C1189.15 2039.4 1182.74 2053.15 1177.5 2064.38C1172.25 2075.61 1167.84 2085.16 1167.84 2085.69C1167.84 2086.11 1251.8 2086.32 1354.34 2086.21L1540.83 2085.9C1545.45 2064.69 1550.28 2043.07 1554.69 2023.97C1558.99 2004.87 1566.13 1974.01 1570.43 1955.22C1574.73 1936.43 1578.72 1919.01 1579.25 1916.38C1579.77 1913.76 1583.55 1897.49 1587.54 1880.17C1591.52 1862.85 1596.35 1841.76 1598.24 1833.15L1601.81 1817.72H1837.42C1839 1814.05 1843.93 1801.24 1849.49 1786.76C1855.04 1772.41 1862.79 1752.32 1866.68 1742.22L1866.7 1742.15L1867.62 1739.78C1871.62 1729.4 1877.97 1712.91 1882.34 1701.74C1886.96 1689.67 1894.62 1669.73 1899.34 1657.66C1903.96 1645.59 1911.1 1627.11 1915.09 1616.72C1919.07 1606.33 1926.63 1587.02 1931.77 1573.69C1936.92 1560.36 1941.01 1549.23 1940.69 1548.81C1940.48 1548.29 1880.03 1547.97 1806.46 1547.97C1699.94 1547.97 1672.76 1547.66 1673.07 1546.71C1673.28 1545.98 1674.43 1540.1 1675.69 1533.8C1676.95 1527.51 1681.57 1505.46 1685.87 1485C1690.18 1464.53 1697.52 1429.58 1702.14 1407.33C1706.76 1385.07 1714.42 1348.97 1718.93 1327.03C1723.55 1305.09 1730.16 1273.92 1733.52 1257.76C1736.99 1241.59 1741.39 1220.29 1743.39 1210.53C1745.38 1200.76 1749.89 1179.25 1753.36 1162.77C1756.82 1146.29 1763.22 1115.85 1767.63 1095.07C1771.93 1074.29 1777.92 1045.95 1780.85 1032.09C1783.69 1018.24 1788.62 994.622 1791.77 979.612C1794.81 964.603 1800.06 939.832 1803.21 924.508C1806.46 909.184 1812.86 878.535 1817.59 856.284C1822.2 834.032 1828.4 804.748 1831.34 791.208C1834.17 777.668 1838.16 758.566 1840.15 748.699C1842.15 738.833 1847.08 715.007 1851.17 695.694C1855.26 676.381 1862.09 644.054 1866.28 623.796C1870.59 603.644 1875.1 581.497 1876.46 574.78Z" fill="#0910B1"/>
<path d="M843.02 253.811C832 253.286 817.202 252.866 809.961 252.971C802.719 253.076 793.589 253.286 789.495 253.496C785.507 253.601 774.593 254.23 765.357 254.86C756.121 255.49 742.478 256.749 734.921 257.589C727.47 258.429 714.876 260.108 707.11 261.263C699.343 262.417 686.854 264.622 679.298 265.986C671.846 267.455 657.153 270.814 646.763 273.438C636.373 276.062 621.05 280.261 612.654 282.885C604.258 285.509 590.405 290.232 581.694 293.381C573.088 296.634 557.451 303.142 547.061 307.76C536.671 312.483 520.613 320.46 511.378 325.604C502.142 330.642 487.764 339.353 479.368 344.811C470.972 350.374 458.483 359.191 451.661 364.439C444.734 369.687 433.4 379.028 426.473 385.116C419.441 391.204 407.477 402.854 399.711 410.831C391.944 418.808 381.764 430.144 377.041 435.917C372.214 441.69 365.077 451.556 361.089 457.959C357.101 464.361 350.279 475.907 345.871 483.674C341.568 491.441 335.586 502.567 332.647 508.34C329.814 514.113 324.147 526.183 320.053 535.105C315.96 544.026 309.349 559.665 305.36 569.742C301.372 579.818 294.551 598.501 290.143 611.201C285.84 623.901 279.858 643.004 276.814 653.71C273.875 664.416 269.572 680.685 267.368 689.921C265.06 699.158 261.176 717.316 258.553 730.331C255.929 743.346 252.675 762.239 251.206 772.315C249.737 782.392 248.268 792.468 247.953 794.567L247.428 798.555C510.958 798.555 587.466 798.241 587.466 797.716C587.466 797.296 588.726 788.059 590.09 777.039C591.559 766.018 593.973 750.274 595.338 741.877C596.807 733.48 599.536 718.681 601.53 708.814C603.524 698.948 606.882 683.624 608.981 674.702C611.08 665.78 615.278 649.721 618.427 639.016C621.575 628.31 625.773 614.665 627.872 608.577C629.971 602.489 634.064 591.678 637.003 584.436C639.941 577.194 645.294 565.438 648.967 558.196C652.535 550.954 658.938 540.038 662.926 533.74C667.124 527.443 674.68 518.101 680.137 512.433C685.385 506.87 692.836 500.363 696.615 497.844C700.393 495.43 706.48 492.176 710.258 490.706C714.036 489.237 720.543 487.453 724.741 486.823C728.834 486.298 735.761 486.088 739.959 486.403C744.052 486.718 751.294 487.663 755.911 488.502C761.264 489.447 767.771 491.756 774.068 494.695C780.575 497.844 785.507 501.202 789.286 504.876C792.434 507.92 796.632 513.063 798.626 516.212C800.62 519.361 803.244 524.294 804.398 527.233C805.658 530.067 807.337 536.154 808.282 540.668C809.331 545.811 809.961 554.207 809.961 563.654C809.961 573.625 809.226 582.967 807.862 591.258C806.707 598.186 804.188 609.732 802.194 616.974C800.2 624.216 796.107 636.916 793.169 645.313C790.125 653.71 783.408 669.979 778.161 681.525C773.018 693.07 764.412 710.808 759.06 720.885C753.812 730.961 745.521 746.075 740.694 754.472C735.866 762.869 728.1 776.094 723.272 783.861C716.45 794.987 705.43 809.366 671.427 851.036C647.603 880.215 616.013 918.945 601.215 937.103C586.312 955.261 549.999 999.975 520.298 1036.29C490.702 1072.71 451.031 1121.31 432.14 1144.4C413.354 1167.49 383.128 1204.54 364.972 1226.79C346.816 1249.05 319.739 1282.32 304.626 1300.79C291.16 1317.37 263.838 1350.84 240.854 1379L233.155 1388.43C208.911 1418.14 165.987 1470.83 137.755 1505.46C109.523 1540.1 82.3414 1573.37 77.4087 1579.46C69.2226 1589.33 68.1731 1591.11 67.1236 1596.78C66.4939 1600.24 62.6108 1620.29 58.6227 1641.39C54.5296 1662.48 47.1831 1700.9 42.2504 1726.93C37.2128 1752.96 31.5455 1782.56 29.5515 1792.85C27.5574 1803.03 25.9832 1811.63 25.9832 1811.95C25.9832 1812.26 282.691 1812.47 596.387 1812.47H1166.79C1166.79 1816.15 1165.53 1824.75 1164.17 1833.99C1162.7 1843.23 1157.24 1878.18 1151.99 1911.66C1146.85 1945.14 1140.03 1989.33 1136.78 2009.8C1133.63 2030.27 1129.85 2054.62 1128.48 2063.85C1127.02 2073.09 1125.55 2081.91 1125.34 2083.59L1124.81 2086.42H1167.32C1181.06 2056.72 1187.78 2042.23 1191.24 2034.99C1194.71 2027.75 1198.28 2019.98 1199.33 2017.67C1200.23 2015.46 1204.12 2007.19 1208.04 1998.84L1208.56 1997.73C1212.55 1989.12 1227.45 1957.21 1241.62 1926.88C1255.68 1896.55 1275.1 1854.98 1284.65 1834.52C1294.2 1814.05 1307 1786.44 1313.2 1773.11C1319.49 1759.78 1327.68 1742.15 1331.56 1733.75C1335.45 1725.36 1346.78 1701.01 1356.75 1679.7C1366.72 1658.39 1376.48 1637.29 1378.58 1632.99C1380.57 1628.69 1390.44 1607.38 1400.52 1585.76C1410.7 1564.14 1425.07 1533.17 1432.52 1517.01C1440.08 1500.85 1457.82 1462.85 1471.88 1432.52C1486.05 1402.18 1500.95 1370.38 1504.94 1361.67C1509.03 1353.06 1513.65 1343.09 1515.23 1339.63C1516.8 1336.16 1520.05 1329.34 1522.26 1324.41C1524.57 1319.47 1531.28 1305.09 1537.27 1292.39L1538.26 1290.24C1543.99 1277.85 1551.11 1262.47 1554.58 1255.13C1558.26 1247.37 1572.84 1215.98 1587.12 1185.33C1601.39 1154.69 1624.37 1105.35 1638.23 1075.65C1652.08 1045.95 1669.71 1008.16 1677.37 991.683C1685.04 975.204 1699.31 944.555 1709.17 923.458C1717.74 904.945 1733.9 870.347 1747.31 841.652L1752.73 830.044C1766.79 799.71 1789.57 750.798 1803.31 721.409C1816.96 692.021 1831.23 661.477 1834.8 653.71C1838.47 645.943 1848.65 624.216 1857.47 605.428C1866.18 586.64 1874.05 569.637 1874.89 567.642C1875.73 565.648 1877.09 563.654 1877.93 563.234C1878.77 562.709 1879.4 561.24 1879.4 559.77V557.146H1375.12C1369.55 567.328 1364.52 576.459 1360.42 583.911C1356.33 591.363 1348.67 605.323 1343.42 614.875C1338.17 624.426 1326.32 645.838 1317.18 662.632C1307.95 679.425 1292.21 707.975 1282.24 726.133C1272.27 744.291 1261.88 763.184 1259.15 768.117L1258.39 769.479C1254.36 776.763 1240.89 801.114 1227.14 826.37C1212.23 853.555 1189.88 894.069 1177.5 916.636C1165.11 939.202 1150.73 965.338 1145.49 974.889C1140.34 984.44 1132.68 998.4 1128.48 1005.85C1124.29 1013.3 1108.75 1041.75 1093.85 1068.83C1079.05 1095.91 1064.57 1122.15 1061.84 1127.08C1059.11 1132.01 1044.73 1158.26 1029.83 1185.33C1014.93 1212.41 999.396 1240.75 995.198 1248.31C991 1255.87 972.843 1288.93 954.792 1321.78C936.74 1354.64 912.917 1397.88 902.002 1417.82C891.087 1437.76 878.178 1461.17 873.456 1469.78C868.733 1478.38 861.071 1492.34 856.454 1500.74C851.836 1509.14 843.545 1524.36 837.982 1534.64L827.802 1553.22C585.053 1553.22 514.211 1552.91 513.791 1552.49C513.267 1552.07 517.989 1546.4 524.286 1540.1C530.478 1533.8 547.585 1515.54 562.383 1499.69C577.076 1483.84 600.48 1458.34 614.334 1443.01C628.187 1427.69 650.541 1402.71 664.185 1387.38C677.724 1372.06 695.145 1352.22 703.016 1343.3C710.783 1334.38 729.254 1312.86 743.947 1295.54C758.64 1278.22 776.587 1257.02 783.828 1248.31L784.963 1246.94C792.308 1238.09 804.747 1223.09 813.214 1212.62C822.24 1201.6 839.662 1179.88 852.151 1164.34C864.535 1148.81 883.636 1124.46 894.446 1110.29C905.36 1096.12 922.152 1073.97 931.703 1060.96C941.358 1047.94 954.162 1030.52 960.144 1022.12C966.231 1013.72 977.566 997.665 985.437 986.435C993.204 975.204 1006.95 954.842 1015.87 941.302C1024.79 927.762 1036.13 910.233 1041.06 902.466C1045.89 894.699 1053.76 881.894 1058.38 874.127C1063.1 866.36 1069.4 855.444 1072.65 849.986C1075.8 844.528 1083.15 831.093 1089.13 820.072C1095.11 809.052 1104.24 790.893 1109.59 779.663C1114.95 768.432 1122.08 752.793 1125.34 745.026C1128.59 737.259 1133.52 724.453 1136.36 716.686C1139.08 708.919 1143.6 694.75 1146.33 685.198C1149.05 675.647 1152.62 662.212 1154.2 655.284C1155.88 648.357 1158.19 636.811 1159.34 629.569C1160.6 622.327 1162.28 609.837 1163.12 601.755C1163.96 593.568 1164.69 576.984 1164.69 564.284C1164.69 550.744 1164.06 535.315 1163.12 526.498C1162.17 518.206 1160.28 505.611 1158.82 498.368C1157.45 491.126 1154.62 479.371 1152.52 472.128C1150.52 464.886 1146.75 453.55 1144.02 446.938C1141.39 440.325 1136.46 429.409 1133.1 422.797C1129.74 416.184 1123.24 405.059 1118.62 398.131C1114.11 391.204 1107.07 381.547 1103.09 376.614C1099.2 371.681 1091.02 362.76 1084.93 356.672C1078.84 350.584 1069.19 341.872 1063.42 337.254C1057.64 332.531 1046.83 324.764 1039.28 319.831C1031.72 314.898 1021.44 308.495 1016.19 305.556C1010.94 302.617 1000.87 297.579 993.623 294.22C986.382 290.862 975.992 286.348 970.534 284.249C965.077 282.045 953.952 278.056 945.871 275.432C937.79 272.703 924.146 268.61 915.436 266.406C906.83 264.097 891.402 260.633 881.327 258.639C867.159 255.805 858.343 254.65 843.02 253.811Z" fill="#FFC107"/>
<path d="M2386.52 840.54H1997.37L1985.09 864.995C1978.37 878.325 1964.41 905.93 1954.13 926.082C1943.84 946.34 1918.76 995.461 1898.5 1035.24L1897.83 1036.56C1877.88 1075.85 1861.56 1107.98 1861.56 1108.5C1861.56 1108.92 1960.95 1109.24 2082.48 1109.24C2229.1 1109.24 2303.4 1109.55 2303.4 1110.29C2303.4 1110.92 2298.89 1121.62 2293.33 1134.22C2287.87 1146.71 2277.16 1170.96 2269.61 1187.96C2262.05 1204.96 2252.5 1226.79 2248.2 1236.56C2243.89 1246.21 2236.86 1262.27 2232.45 1272.24C2228.68 1280.68 2222.22 1295.35 2217.02 1307.16L2214.51 1312.86C2209.05 1325.25 2200.13 1345.4 2194.78 1357.47C2189.43 1369.65 2181.34 1387.8 2176.94 1397.88C2172.53 1407.96 2166.34 1421.92 2163.29 1428.84C2160.25 1435.77 2154.16 1449.63 2149.75 1459.6C2145.35 1469.46 2138.21 1485.84 2133.8 1495.81C2129.39 1505.67 2121.42 1523.83 2116.07 1535.9C2110.71 1547.97 2102.74 1566.13 2098.33 1576.1C2093.92 1585.97 2086.78 1602.24 2082.48 1612L2074.9 1629.2L2066.84 1647.48C2062.54 1657.13 2054.56 1675.4 2048.9 1688.1C2043.33 1700.8 2031.79 1727.04 2023.18 1746.35C2014.68 1765.66 2004.08 1789.59 1999.78 1799.35C1995.48 1809.11 1989.29 1823.07 1986.14 1830.32C1982.99 1837.56 1968.72 1869.89 1954.44 1902.21C1940.17 1934.54 1926 1966.66 1922.96 1973.59C1919.91 1980.52 1915.51 1990.38 1913.2 1995.63C1910.89 2000.88 1905.43 2013.26 1901.02 2023.23C1896.61 2033.1 1889.48 2049.37 1885.17 2059.13C1880.87 2068.89 1873.74 2085.06 1869.43 2094.82C1865.13 2104.58 1861.56 2113.08 1861.56 2113.71C1861.56 2114.44 1925.9 2114.76 2052.26 2114.76H2243.05C2276.22 2035.41 2289.02 2004.87 2292.91 1995.63L2294.23 1992.47C2298.32 1982.75 2304.79 1967.36 2309.49 1956.27C2314.63 1943.88 2322.5 1924.99 2327.02 1914.29C2331.42 1903.58 2339.29 1884.9 2344.33 1872.83C2349.37 1860.76 2356.61 1843.44 2360.39 1834.52C2364.17 1825.59 2370.78 1809.53 2375.29 1798.83C2379.8 1788.12 2387.68 1769.23 2392.82 1756.84C2398.07 1744.46 2405.94 1725.57 2410.45 1714.86C2414.96 1704.15 2425.77 1678.23 2434.59 1657.13C2443.4 1636.04 2454.21 1610.11 2458.73 1599.4L2458.92 1598.94C2463.45 1588.2 2470.65 1571.12 2474.99 1560.57C2479.32 1550.05 2486.49 1533.05 2491.02 1522.31L2491.26 1521.73C2495.77 1511.03 2503.02 1493.6 2507.53 1482.9C2511.94 1472.19 2519.81 1453.51 2524.85 1441.44C2529.88 1429.37 2537.23 1411.84 2541.11 1402.6C2545 1393.37 2552.24 1375.84 2557.38 1363.77C2562.42 1351.7 2570.18 1333.22 2574.49 1322.83C2578.9 1312.44 2588.66 1289.04 2596.21 1270.88C2603.87 1252.72 2617.41 1220.29 2626.33 1198.98C2635.36 1177.67 2644.91 1154.69 2647.64 1148.07C2650.37 1141.46 2656.87 1125.72 2662.23 1113.23C2667.47 1100.63 2676.08 1080.06 2681.33 1067.57C2686.57 1054.97 2695.18 1034.51 2700.32 1022.12C2705.57 1009.74 2715.12 986.854 2721.63 971.215C2728.13 955.681 2737.79 932.485 2743.14 919.785C2748.49 907.085 2757 886.722 2762.03 874.652C2767.07 862.581 2772.21 850.406 2773.47 847.677C2774.73 844.843 2775.68 842.114 2775.68 841.589C2775.68 840.855 2645.22 840.54 2386.52 840.54Z" fill="#FFC107"/>
<path d="M2898.99 178.449C2894.69 177.085 2888.18 176.665 2863.31 176.455C2837.07 176.245 2832.04 176.455 2826.58 178.029C2823.11 179.079 2818.92 180.863 2817.13 182.018C2815.35 183.277 2811.88 186.636 2809.26 189.47C2806.64 192.304 2791.52 208.573 2775.57 225.576C2759.72 242.58 2733.28 270.814 2716.9 288.448C2700.53 306.081 2681.64 326.338 2674.92 333.581C2668.21 340.823 2655.93 354.048 2647.64 362.97C2639.35 371.891 2629.38 382.492 2625.28 386.586C2621.3 390.679 2616.57 396.032 2614.79 398.656C2613 401.28 2610.91 406.003 2610.17 409.152C2609.12 413.98 2609.12 416.08 2610.38 421.957C2611.74 428.255 2612.58 429.724 2617.2 434.343C2621.92 439.066 2623.29 439.801 2630.01 441.27C2636.2 442.53 2643.33 442.739 2666.53 442.53C2691.09 442.215 2696.23 441.795 2701.16 440.22C2705.89 438.646 2708.51 436.652 2715.86 429.2C2720.79 424.266 2728.13 416.604 2732.12 412.196C2736.22 407.893 2744.4 398.866 2750.49 392.358C2756.58 385.746 2763.08 378.714 2765.08 376.614C2767.07 374.62 2773.26 368.008 2778.83 361.92L2779.34 361.372C2784.91 355.386 2791.62 348.181 2794.57 345.126C2797.61 341.977 2802.12 337.149 2804.43 334.525C2806.85 331.901 2825.21 312.064 2845.47 290.547C2865.62 268.925 2889.23 243.734 2897.73 234.393C2910.85 220.223 2913.58 216.76 2914.84 212.351C2915.68 209.412 2916.42 205.634 2916.52 203.954C2916.52 202.17 2915.89 198.182 2914.95 195.033C2913.79 190.939 2912.01 188 2908.75 184.747C2905.92 181.913 2902.35 179.604 2898.99 178.449Z" fill="#FEFFFF"/>
<path d="M2226.79 211.302C2222.27 210.042 2214.51 209.727 2191.1 209.832C2168.75 209.937 2159.83 210.252 2155.95 211.407C2153.01 212.246 2149.54 213.716 2148.08 214.66C2146.61 215.605 2144.09 217.914 2142.51 219.594C2140.94 221.378 2138.94 225.156 2138.1 228.095C2136.74 232.504 2136.53 247.303 2136.53 326.233C2136.53 403.904 2136.74 419.963 2138 424.371C2139.05 427.94 2140.94 431.089 2144.09 434.133C2147.24 437.282 2150.38 439.276 2154.37 440.43C2159.2 441.9 2165.18 442.215 2191.63 442.215C2218.08 442.215 2224.06 441.9 2228.89 440.43C2232.87 439.276 2236.02 437.282 2239.17 434.133C2242.01 431.299 2244.42 427.625 2245.47 424.371C2247.04 419.648 2247.25 409.992 2247.46 328.542C2247.78 249.192 2247.57 237.227 2246.1 231.454C2245.26 227.885 2243.47 223.372 2242.22 221.483C2240.96 219.594 2238.23 216.969 2236.23 215.5C2234.24 214.031 2229.94 212.141 2226.79 211.302Z" fill="#FEFFFF"/>
<path d="M3434.24 584.016C3430.78 583.177 3427 582.442 3425.84 582.442C3424.69 582.547 3414.51 584.646 3403.28 587.27C3392.05 589.894 3368.44 595.247 3350.8 599.236C3333.17 603.224 3315.96 607.108 3312.5 607.737C3309.03 608.367 3291.3 612.356 3273.14 616.554C3254.98 620.647 3237.98 624.426 3235.36 624.846C3232.73 625.266 3216.89 628.834 3200.2 632.718C3183.51 636.706 3166.72 640.38 3162.94 641.115C3159.16 641.745 3142.16 645.523 3125.16 649.512C3108.16 653.5 3092.31 657.069 3090 657.384C3087.69 657.804 3070.69 661.582 3052.22 665.781C3033.75 670.084 3014.86 674.282 3010.24 675.122C3005.62 676.067 2995.44 678.271 2987.68 680.16C2978.44 682.364 2972.14 684.463 2969.62 686.248C2967.53 687.717 2964.69 690.341 2963.33 692.021C2962.07 693.7 2960.07 698.213 2959.13 701.992C2957.56 707.765 2957.24 713.328 2957.24 738.728C2957.24 762.239 2957.66 770.006 2958.92 774.939C2959.76 778.403 2961.54 782.916 2962.91 784.911C2964.17 786.905 2966.9 789.634 2968.89 790.893C2970.88 792.153 2975.29 793.832 2978.76 794.777C2984.63 796.246 2985.68 796.246 2994.5 794.252C2999.64 793.098 3019.79 788.374 3039.1 783.651C3058.41 779.033 3088.85 771.686 3106.79 767.487C3124.74 763.184 3154.65 755.942 3173.44 751.428C3192.22 746.915 3223.81 739.253 3243.75 734.53C3263.7 729.806 3294.55 722.354 3312.5 718.156C3330.44 713.852 3360.56 706.61 3379.66 701.992C3398.77 697.374 3424.16 691.286 3436.34 688.347C3450.82 684.883 3459.53 682.259 3461.74 680.685C3463.52 679.425 3466.25 676.696 3467.72 674.702C3469.19 672.708 3471.08 668.09 3472.02 664.416C3473.49 658.118 3473.49 657.594 3470.97 648.987C3469.5 644.054 3466.77 635.972 3464.78 630.829C3462.79 625.791 3459.11 616.239 3456.59 609.627C3454.07 603.014 3450.82 595.982 3449.35 594.092C3447.99 592.098 3445.47 589.474 3443.68 588.11C3441.9 586.85 3437.7 584.961 3434.24 584.016Z" fill="#FEFFFF"/>
<path d="M2870.66 1287.15C2868.35 1286.41 2865.3 1285.57 2863.84 1285.26C2862.37 1284.94 2858.38 1285.57 2854.91 1286.52C2851.45 1287.46 2847.04 1289.46 2845.15 1290.82C2843.16 1292.29 2839.59 1296.49 2837.18 1300.27C2834.66 1304.05 2828.78 1313.18 2823.95 1320.73L2823.95 1320.74C2819.12 1328.29 2811.88 1339.63 2807.69 1345.92C2803.49 1352.22 2797.51 1361.46 2794.36 1366.39C2791.21 1371.32 2787.85 1376.68 2787.01 1378.46C2786.07 1380.25 2784.91 1383.92 2784.28 1386.86C2783.34 1390.95 2783.44 1393.47 2784.6 1398.4C2785.44 1401.87 2787.33 1406.38 2788.69 1408.38C2790.26 1410.58 2796.88 1415.62 2804.75 1420.76C2812.09 1425.48 2824.58 1433.57 2832.35 1438.5C2840.12 1443.43 2852.5 1451.41 2859.85 1456.03C2867.19 1460.75 2878.42 1467.89 2884.83 1471.88C2891.33 1475.87 2902.67 1483.11 2910.12 1487.83C2917.57 1492.66 2929.74 1500.43 2937.2 1505.15C2944.65 1509.98 2955.98 1517.22 2962.49 1521.21C2968.89 1525.2 2980.43 1532.54 2987.99 1537.37C2995.65 1542.2 3007.93 1550.18 3015.49 1554.9C3023.04 1559.73 3034.8 1567.29 3041.73 1571.69C3048.65 1576 3059.99 1583.24 3066.91 1587.54C3073.84 1591.95 3085.17 1599.19 3092.1 1603.6L3096.35 1606.3C3103.04 1610.56 3111.5 1615.95 3116.97 1619.45C3123.69 1623.75 3135.55 1631.21 3143.21 1636.04C3150.87 1640.86 3162.84 1648.53 3169.76 1652.93C3176.69 1657.34 3188.55 1665 3196.21 1669.83C3203.77 1674.66 3214.68 1681.59 3220.35 1685.16C3226.02 1688.73 3234.94 1694.39 3240.08 1697.65C3245.22 1701.01 3252.36 1704.47 3255.82 1705.41C3261.49 1706.99 3262.75 1706.99 3267.89 1705.73C3271.04 1704.89 3275.55 1703 3277.76 1701.43C3279.96 1699.85 3285 1694.08 3288.88 1688.62C3292.66 1683.16 3299.8 1672.35 3304.73 1664.69C3309.56 1657.03 3315.65 1647.48 3318.27 1643.49C3320.89 1639.5 3326.25 1631.1 3330.34 1624.91C3335.27 1617.25 3338.21 1611.37 3339.47 1606.75C3341.15 1600.45 3341.15 1599.4 3339.68 1593.63C3338.84 1590.17 3336.95 1585.65 3335.59 1583.66C3334.12 1581.56 3328.55 1577.05 3322.47 1573.16C3317.8 1570.16 3309.88 1565.1 3303.03 1560.73L3298.01 1557.52C3290.35 1552.7 3278.18 1544.82 3270.83 1540.21C3263.49 1535.48 3251.94 1528.24 3245.12 1523.94C3238.3 1519.63 3227.07 1512.6 3220.14 1508.09C3213.21 1503.68 3201.35 1496.02 3193.69 1491.19C3186.14 1486.36 3174.7 1479.01 3168.19 1475.03C3161.79 1471.04 3150.35 1463.69 3142.69 1458.86C3135.03 1454.03 3122.85 1446.16 3115.61 1441.54C3108.26 1436.82 3097.03 1429.68 3090.63 1425.69C3084.23 1421.71 3072.69 1414.36 3065.02 1409.53C3057.47 1404.7 3045.08 1396.83 3037.53 1392C3029.97 1387.17 3018.22 1379.72 3011.29 1375.31C3004.36 1370.9 2993.03 1363.66 2986.1 1359.36C2979.18 1354.95 2967.84 1347.71 2960.91 1343.3C2953.99 1338.89 2942.13 1331.23 2934.47 1326.4C2926.91 1321.57 2915.37 1314.23 2908.86 1310.24C2902.46 1306.25 2892.07 1299.64 2885.98 1295.65C2879.89 1291.66 2872.97 1287.78 2870.66 1287.15Z" fill="#FEFFFF"/>
<path d="M2859.95 203.43H2832.45L2830.04 206.473C2828.68 208.048 2814.61 223.372 2798.66 240.271C2782.81 257.274 2756.05 285.824 2739.36 303.772C2722.68 321.72 2693.4 353.103 2674.29 373.57C2655.19 394.038 2638.82 411.461 2637.77 412.301C2636.83 413.141 2635.99 414.19 2636.09 414.61C2636.09 415.135 2648.69 415.45 2664.22 415.45H2692.24C2741.88 362.34 2767.18 335.26 2780.4 320.985C2793.73 306.816 2820.18 278.371 2839.28 257.904C2858.38 237.437 2877.37 217.179 2881.47 212.876C2885.56 208.573 2888.6 204.584 2888.18 204.164C2887.76 203.744 2875.06 203.43 2859.95 203.43Z" fill="#FFC107"/>
<path d="M2220.49 415.45V235.967C2176.83 235.967 2163.71 236.282 2163.29 236.597C2162.77 237.017 2162.45 277.427 2162.56 326.338L2162.77 415.45H2220.49Z" fill="#FFC107"/>
<path d="M3437.07 633.663C3428.47 610.886 3427.73 609.522 3425.32 609.732C3423.85 609.732 3401.18 614.665 3374.94 620.647C3348.7 626.525 3303.58 636.706 3274.71 643.109C3245.85 649.616 3198.1 660.217 3168.71 666.83C3139.22 673.338 3090.84 684.148 3061.14 690.866C3031.44 697.478 3002.16 704.091 2996.07 705.455L2985.05 707.87C2984.63 755.312 2984.84 769.167 2985.26 769.167C2985.68 769.167 3005.94 764.443 3030.18 758.565C3054.42 752.793 3090.11 744.291 3109.42 739.673C3128.73 734.949 3156.12 728.442 3170.29 725.083C3184.46 721.619 3213.84 714.587 3235.57 709.339C3257.4 704.091 3293.08 695.589 3314.81 690.341L3315.89 690.081C3337.54 684.876 3364.33 678.436 3375.99 675.752C3387.85 672.918 3408.32 667.985 3421.64 664.731C3434.87 661.477 3445.89 658.643 3445.99 658.328C3446.2 658.118 3442.11 646.992 3437.07 633.663Z" fill="#FFC107"/>
<path d="M2904.77 1339.31C2882.52 1325.14 2863.83 1313.18 2863.21 1312.55C2862.37 1311.92 2859.32 1315.59 2853.13 1325.04C2848.2 1332.49 2836.76 1350.12 2827.63 1364.29C2818.5 1378.36 2810.83 1390.64 2810.63 1391.58C2810.42 1392.63 2824.06 1401.76 2853.55 1420.45C2877.27 1435.46 2914.21 1458.86 2935.62 1472.4C2957.03 1486.05 2999.85 1513.23 3030.71 1532.86C3061.56 1552.49 3108.37 1582.19 3134.61 1598.88C3160.84 1615.57 3200.3 1640.65 3222.24 1654.61C3252.47 1673.82 3262.44 1679.7 3263.28 1678.75C3263.9 1678.12 3275.45 1660.6 3288.88 1639.81C3302.32 1619.03 3313.34 1601.29 3313.44 1600.56C3313.44 1599.72 3300.85 1591.01 3285.21 1581.04C3269.57 1571.06 3226.86 1543.98 3190.23 1520.68C3153.6 1497.38 3113.41 1471.88 3101.02 1464C3088.64 1456.03 3048.44 1430.52 3011.81 1407.33L3008.08 1404.95C2971.97 1381.98 2926.27 1352.9 2904.77 1339.31Z" fill="#FFC107"/>
<path fill-rule="evenodd" clip-rule="evenodd" d="M1415.94 922.409C1416.57 922.409 1416.99 923.668 1416.78 925.348C1416.57 926.922 1388.13 1069.88 1353.5 1243.06C1318.86 1416.25 1290.63 1558.05 1290.63 1558.26C1290.63 1558.36 1249.07 1558.47 1105.92 1558.47L1106.34 1555.53C1106.55 1553.96 1114.63 1536.64 1124.29 1517.01C1133.94 1497.38 1150 1464.53 1159.97 1444.06C1169.94 1423.6 1186.94 1388.85 1197.65 1366.92C1208.46 1344.98 1217.17 1327.03 1217.17 1327.03C1217.17 1327.03 1226.4 1308.14 1237.74 1285.05C1249.07 1261.96 1265.55 1228.16 1274.37 1210C1283.18 1191.84 1299.97 1157.52 1311.52 1133.9C1323.17 1110.29 1332.61 1090.87 1332.61 1090.87C1332.61 1090.87 1342.37 1070.82 1354.44 1046.26C1366.51 1021.7 1384.98 983.811 1395.48 961.979C1406.08 940.252 1415.31 922.409 1415.94 922.409V922.409ZM1282.24 1254.61C1246.34 1327.87 1205.52 1411.52 1191.35 1440.39C1177.29 1469.25 1161.54 1501.37 1156.51 1511.76L1147.17 1530.65C1240.36 1531.07 1267.86 1530.86 1268.38 1530.44C1268.91 1529.92 1288.01 1435.67 1310.89 1320.94C1333.77 1206.12 1352.34 1112.07 1352.24 1111.86C1352.03 1111.76 1350.98 1113.75 1349.72 1116.48C1348.46 1119.1 1318.13 1181.35 1282.24 1254.61Z" fill="#FEFFFF"/>
<path d="M1355 1104L1146 1531L1270 1533L1355 1104Z" fill="#0910B1"/>
</svg>
